<svg xmlns="http://www.w3.org/2000/svg" viewBox="0 0 100 100">
  <!-- 蓝色背景 -->
  <circle cx="50" cy="50" r="50" fill="#00247d"/>

  <!-- 红色十字 -->
  <rect x="20" y="0" width="60" height="100" fill="#cf142b"/>
  <rect x="0" y="20" width="100" height="60" fill="#cf142b"/>

  <!-- 白色十字 -->
  <rect x="23" y="0" width="54" height="100" fill="#fff"/>
  <rect x="0" y="23" width="100" height="54" fill="#fff"/>

  <!-- 红色对角线 -->
  <polygon points="0,0 20,20 40,0 60,20 80,0 100,20 80,40 100,60 80,80 60,100 40,80 20,100" fill="#cf142b"/>
  
  <!-- 白色对角线 -->
  <polygon points="0,0 15,15 30,0 40,10 60,10 70,0 85,15 100,0 100,20 85,35 70,20 60,30 40,30 30,20 15,35 0,20" fill="#fff"/>
</svg>
