<svg width="120" height="120" viewBox="0 0 120 120" xmlns="http://www.w3.org/2000/svg">
  <!-- 红色圆形背景 -->
  <circle cx="60" cy="60" r="60" fill="#DE2910"/>
  
  <!-- 大五角星 -->
  <path d="M60 20 L66.8 38.2 L86.2 38.2 L70.6 48.8 L77.4 67 L60 55 L42.6 67 L49.4 48.8 L33.8 38.2 L53.2 38.2 Z" 
        fill="#FFDE00" transform="rotate(0, 60, 60)"/>
  
  <!-- 小五角星1 -->
  <path d="M80 40 L83.5 48.5 L92.5 48.5 L85.5 53.5 L89 62 L80 57 L71 62 L74.5 53.5 L67.5 48.5 L76.5 48.5 Z" 
        fill="#FFDE00" transform="rotate(15, 60, 60)"/>
  
  <!-- 小五角星2 -->
  <path d="M80 50 L83.5 58.5 L92.5 58.5 L85.5 63.5 L89 72 L80 67 L71 72 L74.5 63.5 L67.5 58.5 L76.5 58.5 Z" 
        fill="#FFDE00" transform="rotate(30, 60, 60)"/>
  
  <!-- 小五角星3 -->
  <path d="M75 65 L78.5 73.5 L87.5 73.5 L80.5 78.5 L84 87 L75 82 L66 87 L69.5 78.5 L62.5 73.5 L71.5 73.5 Z" 
        fill="#FFDE00" transform="rotate(0, 60, 60)"/>
  
  <!-- 小五角星4 -->
  <path d="M60 70 L63.5 78.5 L72.5 78.5 L65.5 83.5 L69 92 L60 87 L51 92 L54.5 83.5 L47.5 78.5 L56.5 78.5 Z" 
        fill="#FFDE00" transform="rotate(-15, 60, 60)"/>
</svg>